<svg xmlns="http://www.w3.org/2000/svg" fill="none" viewBox="0 0 32 32"><path fill="#316DC2" d="M.98 9.39c-.9.64-1.44 2.01-.44 3.65 1 1.64 15.35 12.7 15.87 13.01.53.3 1.05.36 2.4-.72 1.33-1.07 12.51-9.47 12.8-9.73.46-.4.58-1.38 0-1.84 0 0-13.55 10.14-13.99 10.55-.44.4-1.13-.26-1-1.13.13-.87.22-.97 1.94-2.3 1.72-1.33 11.48-8.73 11.92-9.05.5-.37.52-1.03-.3-1.6-1.15-.81-13.48-9.58-13.9-9.9-.4-.3-.98-.58-1.84.04-.86.61-11.8 7.83-13.46 9.02"/><path fill="#316DC2" d="M16.41 27.13c-.34-.2-6.64-5.03-11.2-8.8v7.85c0 5.72 16.12 8.78 21.46 1.74v-7.5a814.65 814.65 0 0 0-7.87 6c-1.34 1.07-1.86 1.02-2.39.7"/><path fill="#98B8E6" d="M23.24 18.53s2.4 1.2 2.57 6.06l-1.17-.32-.93 1.97c-.39-5.31-2.53-6.08-2.53-6.08z"/></svg>