<svg xmlns="http://www.w3.org/2000/svg" xmlns:xlink="http://www.w3.org/1999/xlink"><symbol id="a" fill="currentColor" viewBox="0 0 12 12"><path d="m11.46 8.18-5.46-4.9-5.45 4.9"/></symbol><use xlink:href="#a" width="12" height="12"/><view viewBox="0 0 12 12"/><symbol id="c" fill="currentColor" viewBox="0 0 10 10"><g clip-path="url(#b)"><path d="m1 9 8-8m0 0h-7.95m7.95 0v7.95"/></g><defs><clipPath id="b"><path d="M0 0h10v10h-10z"/></clipPath></defs></symbol><use xlink:href="#c" width="10" height="10" y="12"/><view viewBox="0 12 10 10"/><symbol id="d" fill="currentColor" viewBox="0 0 18 18"><path d="m1 17 8-8m0 0 8-8m-8 8 8 8m-8-8-8-8"/></symbol><use xlink:href="#d" width="18" height="18" y="22"/><view viewBox="0 22 18 18"/><symbol id="e" viewBox="0 0 30 30"><path fill="#316DC2" d="M.92 8.8c-.85.6-1.35 1.9-.41 3.43.94 1.54 14.38 11.9 14.88 12.2.49.28.98.33 2.24-.68 1.25-1 11.74-8.88 12-9.12.44-.38.54-1.3 0-1.73 0 0-12.7 9.5-13.11 9.89-.42.38-1.06-.24-.94-1.06.12-.81.2-.9 1.82-2.16a2565.5 2565.5 0 0 1 11.18-8.48c.47-.35.48-.96-.3-1.5a5194.72 5194.72 0 0 1-13.01-9.27c-.4-.3-.93-.55-1.73.02-.81.58-11.06 7.35-12.62 8.46"/><path fill="#316DC2" d="M15.39 25.43c-.33-.19-6.23-4.71-10.51-8.24v7.35c0 5.37 15.12 8.24 20.13 1.64v-7.03a777.64 777.64 0 0 0-7.38 5.61c-1.26 1-1.75.96-2.24.67"/><path fill="#98B8E6" d="M21.79 17.37s2.24 1.13 2.4 5.68l-1.09-.3-.87 1.85c-.37-4.98-2.37-5.7-2.37-5.7z"/></symbol><use xlink:href="#e" width="30" height="30" y="40"/><view viewBox="0 40 30 30"/><symbol id="f" fill="currentColor" viewBox="0 0 20 20"><path d="M1 6h18m-18 4h18m-18 4h18"/></symbol><use xlink:href="#f" width="20" height="20" y="70"/><view viewBox="0 70 20 20"/></svg>